<svg width="50" height="50" viewBox="0 0 50 50" fill="none" xmlns="http://www.w3.org/2000/svg">
<circle cx="25" cy="25" r="25" fill="#7289DA"/>
<path d="M37.2521 29.756C37.4947 29.756 37.6814 29.868 37.8121 30.092C37.9614 30.316 38.0361 30.624 38.0361 31.016C38.0361 31.744 37.8587 32.3227 37.5041 32.752C36.4587 34.0027 35.4414 34.88 34.4521 35.384C33.4814 35.888 32.3054 36.14 30.9241 36.14C29.9534 36.14 29.0574 36.0187 28.2361 35.776C27.4147 35.5333 26.4161 35.1693 25.2401 34.684C24.1761 34.2173 23.1494 33.8347 22.1601 33.536C21.2081 35.272 19.7801 36.14 17.8761 36.14C16.8307 36.14 16.0001 35.9067 15.3841 35.44C14.7494 34.9547 14.4321 34.3387 14.4321 33.592C14.4321 32.6773 14.8707 31.9213 15.7481 31.324C16.6254 30.708 17.7921 30.4 19.2481 30.4H19.6121L20.1161 22.252C20.2281 20.3853 20.5641 18.8453 21.1241 17.632C21.6841 16.4187 22.4587 15.3827 23.4481 14.524C24.3067 13.7773 25.2867 13.2173 26.3881 12.844C27.4894 12.452 28.6561 12.256 29.8881 12.256C31.9041 12.256 33.4534 12.7787 34.5361 13.824C35.6187 14.8693 36.1601 16.232 36.1601 17.912C36.1601 19.0507 35.9547 19.9747 35.5441 20.684C35.1334 21.3747 34.5641 21.72 33.8361 21.72C33.3134 21.72 32.9027 21.5987 32.6041 21.356C32.3054 21.0947 32.1561 20.7307 32.1561 20.264C32.1561 20.096 32.1934 19.788 32.2681 19.34C32.3801 18.8173 32.4361 18.3507 32.4361 17.94C32.4361 17.156 32.2027 16.54 31.7361 16.092C31.2881 15.6253 30.5974 15.392 29.6641 15.392C28.0214 15.392 26.7521 15.9333 25.8561 17.016C24.9601 18.08 24.3907 19.76 24.1481 22.056L23.5041 28.412C23.4107 29.308 23.2894 30.0827 23.1401 30.736C24.3347 30.9413 25.8281 31.268 27.6201 31.716C28.6654 31.9773 29.4681 32.164 30.0281 32.276C30.5881 32.388 31.0827 32.444 31.5121 32.444C32.5947 32.444 33.5187 32.2667 34.2841 31.912C35.0681 31.5387 35.8054 30.9507 36.4961 30.148C36.7201 29.8867 36.9721 29.756 37.2521 29.756Z" fill="white"/>
</svg>
