<svg xmlns="http://www.w3.org/2000/svg" version="1.1" xmlns:xlink="http://www.w3.org/1999/xlink" xmlns:svgjs="http://svgjs.com/svgjs" width="1440" height="560" preserveAspectRatio="none" viewBox="0 0 1440 560"><g mask="url(&quot;#SvgjsMask1030&quot;)" fill="none"><path d="M716.9 299.11 a11.43 11.43 0 1 0 22.86 0 a11.43 11.43 0 1 0 -22.86 0z" fill="rgba(114, 137, 218, 0.56)"></path><path d="M568.48 235.11L574.66 235.11L574.66 251.54L568.48 251.54z" fill="rgba(114, 137, 218, 0.56)"></path><path d="M903.19 270.39 a30.07 30.07 0 1 0 60.14 0 a30.07 30.07 0 1 0 -60.14 0z" fill="rgba(114, 137, 218, 0.56)"></path><path d="M1401.51 103.28a48.76 48.76 0 1 0-88.27 41.46z" fill="rgba(114, 137, 218, 0.56)"></path><path d="M714.19 18.43a41.47 41.47 0 1 0-51.77 64.8z" stroke="rgba(114, 137, 218, 0.56)"></path><path d="M1018.4 395.43a42.54 42.54 0 1 0 11.42-84.31z" fill="rgba(114, 137, 218, 0.56)"></path><path d="M728.66 176.62L763.99 176.62L763.99 183.5L728.66 183.5z" fill="rgba(114, 137, 218, 0.56)"></path><path d="M1305.47 45.87 a46.03 46.03 0 1 0 92.06 0 a46.03 46.03 0 1 0 -92.06 0z" fill="rgba(114, 137, 218, 0.56)"></path><path d="M1325.59 517.15a6.09 6.09 0 1 0-7.79-9.36z" stroke="rgba(114, 137, 218, 0.56)"></path><path d="M1155.02 345.93a17.56 17.56 0 1 0 26.58 22.96z" stroke="rgba(114, 137, 218, 0.56)"></path><path d="M124.29 491.73 a0.16 0.16 0 1 0 0.32 0 a0.16 0.16 0 1 0 -0.32 0z" stroke="rgba(114, 137, 218, 0.56)"></path><path d="M368.06 33.83a6.29 6.29 0 1 0 2.3 12.37z" fill="rgba(114, 137, 218, 0.56)"></path><path d="M1144.07 470.66a8.64 8.64 0 1 0-17.28-0.3z" fill="rgba(114, 137, 218, 0.56)"></path><path d="M571.21 439.04L624.43 439.04L624.43 492.26L571.21 492.26z" stroke="rgba(114, 137, 218, 0.56)"></path><path d="M1384.44 404.86L1408.97 404.86L1408.97 450.58L1384.44 450.58z" fill="rgba(114, 137, 218, 0.56)"></path><path d="M299.87 149.3L334.63 149.3L334.63 184.06L299.87 184.06z" fill="rgba(114, 137, 218, 0.56)"></path><path d="M114.62 143.28L159.42 143.28L159.42 188.08L114.62 188.08z" fill="rgba(114, 137, 218, 0.56)"></path><path d="M1287.65 303.64 a7.94 7.94 0 1 0 15.88 0 a7.94 7.94 0 1 0 -15.88 0z" fill="rgba(114, 137, 218, 0.56)"></path><path d="M286.11 188.82L302.45 188.82L302.45 205.16L286.11 205.16z" stroke="rgba(114, 137, 218, 0.56)"></path><path d="M872.44 54.57a49.71 49.71 0 1 0-99.42-0.15z" stroke="rgba(114, 137, 218, 0.56)"></path><path d="M585.36 481.88a52.72 52.72 0 1 0-72.52 76.54z" stroke="rgba(114, 137, 218, 0.56)"></path><path d="M248.16 458.99a21.24 21.24 0 1 0-42.37 3.18z" fill="rgba(114, 137, 218, 0.56)"></path><path d="M263.21 295.74L291.44 295.74L291.44 343.8L263.21 343.8z" stroke="rgba(114, 137, 218, 0.56)"></path><path d="M1275 328.02L1292.96 328.02L1292.96 382.88L1275 382.88z" fill="rgba(114, 137, 218, 0.56)"></path><path d="M527.42 524.23a48.5 48.5 0 1 0-92.33-29.73z" fill="rgba(114, 137, 218, 0.56)"></path><path d="M686.55 282.68 a55.73 55.73 0 1 0 111.46 0 a55.73 55.73 0 1 0 -111.46 0z" stroke="rgba(114, 137, 218, 0.56)"></path><path d="M1153.23 499.53a55.61 55.61 0 1 0-86.7 69.67z" stroke="rgba(114, 137, 218, 0.56)"></path><path d="M353.78 463.39a47.54 47.54 0 1 0-40.94-85.82z" stroke="rgba(114, 137, 218, 0.56)"></path><path d="M1054.75 101.29L1088 101.29L1088 154.21L1054.75 154.21z" fill="rgba(114, 137, 218, 0.56)"></path><path d="M1170.5 270.14 a48.34 48.34 0 1 0 96.68 0 a48.34 48.34 0 1 0 -96.68 0z" fill="rgba(114, 137, 218, 0.56)"></path><path d="M420.18 530.06L453.93 530.06L453.93 563.81L420.18 563.81z" stroke="rgba(114, 137, 218, 0.56)"></path><path d="M313.05 320.6L318.99 320.6L318.99 368.3L313.05 368.3z" stroke="rgba(114, 137, 218, 0.56)"></path><path d="M589.83 468.15a31.82 31.82 0 1 0 61.22-17.4z" fill="rgba(114, 137, 218, 0.56)"></path></g><defs><mask id="SvgjsMask1030"><rect width="1440" height="560" fill="#ffffff"></rect></mask></defs></svg>