<svg xmlns="http://www.w3.org/2000/svg" version="1.1" xmlns:xlink="http://www.w3.org/1999/xlink" xmlns:svgjs="http://svgjs.com/svgjs" width="1440" height="560" preserveAspectRatio="none" viewBox="0 0 1440 560"><g mask="url(&quot;#SvgjsMask1069&quot;)" fill="none"><path d="M0 0L19.79 0L0 62.14z" fill="rgba(255, 255, 255, .1)"></path><path d="M0 62.14L19.79 0L391.69 0L0 209.7z" fill="rgba(255, 255, 255, .075)"></path><path d="M0 209.7L391.69 0L1011.8499999999999 0L0 213.7z" fill="rgba(255, 255, 255, .05)"></path><path d="M0 213.7L1011.8499999999999 0L1222.77 0L0 243.5z" fill="rgba(255, 255, 255, .025)"></path><path d="M1440 560L909.61 560L1440 505.69z" fill="rgba(0, 0, 0, .1)"></path><path d="M1440 505.69L909.61 560L436.89 560L1440 338.24z" fill="rgba(0, 0, 0, .075)"></path><path d="M1440 338.24L436.89 560L339.78999999999996 560L1440 134.88z" fill="rgba(0, 0, 0, .05)"></path><path d="M1440 134.88L339.78999999999996 560L323.12999999999994 560L1440 132.19z" fill="rgba(0, 0, 0, .025)"></path></g><defs><mask id="SvgjsMask1069"><rect width="1440" height="560" fill="#ffffff"></rect></mask></defs></svg>