<svg xmlns="http://www.w3.org/2000/svg" version="1.1" xmlns:xlink="http://www.w3.org/1999/xlink" xmlns:svgjs="http://svgjs.com/svgjs" width="1440" height="560" preserveAspectRatio="none" viewBox="0 0 1440 560"><g mask="url(&quot;#SvgjsMask1277&quot;)" fill="none"><path d="M1009.283,419.137C1037.552,417.964,1062.774,403.008,1077.442,378.814C1092.721,353.613,1098.255,322.124,1083.604,296.553C1068.882,270.859,1038.893,260.251,1009.283,259.853C978.837,259.444,947.636,268.737,931.416,294.506C914.211,321.84,913.459,357.514,930.572,384.905C946.82,410.912,978.644,420.408,1009.283,419.137" fill="rgba(114, 137, 218, 0.52)" class="triangle-float1"></path><path d="M1346.04,451.627C1395.748,448.446,1426.999,404.137,1452.067,361.095C1477.371,317.649,1503.392,267.075,1479.194,223.003C1454.421,177.884,1397.461,165.694,1346.04,167.987C1299,170.085,1257.241,194.291,1231.98,234.028C1204.473,277.298,1189.773,330.945,1213.577,376.357C1238.847,424.567,1291.72,455.103,1346.04,451.627" fill="rgba(114, 137, 218, 0.52)" class="triangle-float3"></path><path d="M967.532,643.341C1006.291,640.786,1038.879,619.078,1060.335,586.698C1084.907,549.616,1105.854,504.541,1085.824,464.822C1064.328,422.194,1015.27,402.136,967.532,402.666C920.752,403.185,877.476,427.105,853.703,467.398C829.531,508.367,824.962,560.574,850.801,600.512C874.931,637.809,923.206,646.263,967.532,643.341" fill="rgba(114, 137, 218, 0.52)" class="triangle-float3"></path><path d="M247.606,252.629C270.607,252.242,285.615,230.96,296.438,210.661C306.46,191.864,310.967,170.421,301.652,151.264C291.051,129.462,271.841,110.871,247.606,110.234C222.472,109.573,199.773,125.862,188.405,148.288C177.986,168.841,184.469,192.313,195.84,212.355C207.403,232.735,224.177,253.024,247.606,252.629" fill="rgba(114, 137, 218, 0.52)" class="triangle-float2"></path><path d="M107.285,48.411C127.345,48.224,141.59,30.51,150.47,12.521C158.249,-3.238,157.069,-20.903,149.277,-36.655C140.293,-54.817,127.547,-74.979,107.285,-74.779C87.193,-74.581,75.776,-53.769,66.702,-35.842C58.741,-20.113,55.034,-2.544,62.684,13.339C71.481,31.602,87.015,48.6,107.285,48.411" fill="rgba(114, 137, 218, 0.52)" class="triangle-float2"></path><path d="M906.691,447.569C931.42,447.562,953.725,434.081,966.663,413.007C980.279,390.828,986.366,362.409,972.486,340.394C959.236,319.378,931.527,317.27,906.691,317.882C883.254,318.459,858.786,323.675,846.278,343.503C833.023,364.515,834.191,391.553,846.663,413.038C859.084,434.435,881.95,447.576,906.691,447.569" fill="rgba(114, 137, 218, 0.52)" class="triangle-float2"></path><path d="M225.1,520.177C266.142,520.713,309.446,509.178,330.192,473.762C351.114,438.046,341.875,393.431,319.89,358.359C299.352,325.596,263.662,308.974,225.1,306.117C179.529,302.741,126.168,303.218,102.403,342.248C78.112,382.142,98.141,432.626,124.657,471.078C147.332,503.961,185.16,519.655,225.1,520.177" fill="rgba(114, 137, 218, 0.52)" class="triangle-float1"></path><path d="M100.065,408.721C143.897,409.681,174.795,370.911,196.489,332.811C217.892,295.223,231.738,251.021,211.681,212.699C190.356,171.954,145.935,145.283,100.065,148.579C58.359,151.575,31.736,189.505,13.154,226.962C-3.011,259.547,-5.005,295.929,10.686,328.744C29.171,367.402,57.225,407.783,100.065,408.721" fill="rgba(114, 137, 218, 0.52)" class="triangle-float3"></path></g><defs><mask id="SvgjsMask1277"><rect width="1440" height="560" fill="#ffffff"></rect></mask><style>
            @keyframes float1 {
                0%{transform: translate(0, 0)}
                50%{transform: translate(-10px, 0)}
                100%{transform: translate(0, 0)}
            }

            .triangle-float1 {
                animation: float1 5s infinite;
            }

            @keyframes float2 {
                0%{transform: translate(0, 0)}
                50%{transform: translate(-5px, -5px)}
                100%{transform: translate(0, 0)}
            }

            .triangle-float2 {
                animation: float2 4s infinite;
            }

            @keyframes float3 {
                0%{transform: translate(0, 0)}
                50%{transform: translate(0, -10px)}
                100%{transform: translate(0, 0)}
            }

            .triangle-float3 {
                animation: float3 6s infinite;
            }
        </style></defs></svg>