<svg xmlns="http://www.w3.org/2000/svg" version="1.1" xmlns:xlink="http://www.w3.org/1999/xlink" xmlns:svgjs="http://svgjs.com/svgjs" width="1440" height="560" preserveAspectRatio="none" viewBox="0 0 1440 560"><g mask="url(&quot;#SvgjsMask1015&quot;)" fill="none"><path d="M116.88 566.33C301.43 563.1 449.94 333.43 815.82 328.48 1181.7 323.53 1333.29 134.32 1514.76 132.48" stroke="rgba(114, 137, 218, 1)" stroke-width="2"></path><path d="M657.42 602.22C810.12 580.47 892.91 223.45 1143.06 221.67 1393.21 219.89 1502.35 360.28 1628.7 361.67" stroke="rgba(114, 137, 218, 1)" stroke-width="2"></path><path d="M446.58 671.63C628.15 644.17 728.08 211.55 1018.54 210.76 1309 209.97 1433.79 462.51 1590.5 468.36" stroke="rgba(114, 137, 218, 1)" stroke-width="2"></path><path d="M537.52 622.95C667.89 585.25 624.78 218.36 898.94 217.89 1173.1 217.42 1431.34 455.55 1621.79 458.69" stroke="rgba(114, 137, 218, 1)" stroke-width="2"></path><path d="M169.67 612.82C296.6 606.86 394.47 389.03 625.76 388.49 857.04 387.95 853.8 458.49 1081.84 458.49 1309.89 458.49 1422.57 388.69 1537.93 388.49" stroke="rgba(114, 137, 218, 1)" stroke-width="2"></path></g><defs><mask id="SvgjsMask1015"><rect width="1440" height="560" fill="#ffffff"></rect></mask></defs></svg>